<svg id="Layer_1" data-name="Layer 1" xmlns="http://www.w3.org/2000/svg" viewBox="0 0 243 254.46"><defs><style>.cls-1,.cls-3{fill:none;stroke-miterlimit:10;}.cls-1{stroke:#010101;stroke-width:10px;}.cls-2{fill:#1d1d1b;}.cls-3{stroke:#1d1d1b;stroke-linecap:round;stroke-width:6px;}</style></defs><title>emptyState</title><path class="cls-1" d="M292,178.6c0,67.5-52.16,122.23-116.5,122.23S59,246.1,59,178.6,111.16,56.37,175.5,56.37,292,111.09,292,178.6Z" transform="translate(-54 -51.37)"/><path class="cls-2" d="M122.47,183.58h0a8.7,8.7,0,0,1-8.47-8.87V153.4a8.7,8.7,0,0,1,8.47-8.88h0a8.7,8.7,0,0,1,8.46,8.88v21.31A8.7,8.7,0,0,1,122.47,183.58Z" transform="translate(-54 -51.37)"/><path class="cls-2" d="M228.53,183.58h0a8.7,8.7,0,0,1-8.46-8.87V153.4a8.7,8.7,0,0,1,8.46-8.88h0A8.7,8.7,0,0,1,237,153.4v21.31A8.7,8.7,0,0,1,228.53,183.58Z" transform="translate(-54 -51.37)"/><path class="cls-3" d="M109.42,122.35s16.7,7.21,22.64-8.47" transform="translate(-54 -51.37)"/><path class="cls-3" d="M240,122.35s-16.7,7.21-22.64-8.47" transform="translate(-54 -51.37)"/><path class="cls-2" d="M217.12,244.34a2.73,2.73,0,0,0,4.6-2.63l0-.07c-3.64-12.74-15.82-44.81-46-44.81S133.07,229.12,129.31,242l0,.08a2.72,2.72,0,0,0,4.6,2.63C140,238,158,227.16,175.51,227.16S211,237.71,217.12,244.34Z" transform="translate(-54 -51.37)"/></svg>