<svg id="Layer_1" data-name="Layer 1" xmlns="http://www.w3.org/2000/svg" viewBox="0 0 201.66 89.36"><defs><style>.cls-1,.cls-2{fill:#fff;}.cls-1{stroke:#003580;}.cls-1,.cls-4{stroke-miterlimit:10;}.cls-3{fill:#003580;}.cls-4{fill:none;stroke:#fff;}</style></defs><title>map</title><polygon class="cls-1" points="0.5 22.18 0.5 68.33 0.5 77.35 22.7 68.33 22.7 22.18 22.7 13.17 0.5 22.18"/><polygon class="cls-1" points="44.91 22.18 44.91 68.33 44.91 77.35 22.7 68.33 22.7 22.18 22.7 13.17 44.91 22.18"/><polygon class="cls-1" points="44.81 22.18 44.81 68.33 44.81 77.35 67.02 68.33 67.02 22.18 67.02 13.17 44.81 22.18"/><path class="cls-2" d="M149,61.5c0,4.14-7.49,26.27-7.49,26.27S134,65.64,134,61.5a7.5,7.5,0,1,1,15,0Z" transform="translate(-15.03 -7.83)"/><path class="cls-2" d="M216.69,15.33c0,4.14-7.5,26.27-7.5,26.27s-7.49-22.13-7.49-26.27a7.5,7.5,0,1,1,15,0Z" transform="translate(-15.03 -7.83)"/><circle class="cls-3" cx="194.17" cy="7.54" r="4.43"/><circle class="cls-3" cx="126.47" cy="53.94" r="4.43"/><path class="cls-4" d="M207.42,41.53c-3.64-1.37-17.62-6.34-22.93-2-5.83,4.73.37,19.32,8.63,28.68,6.33,7.17,11.61,8.7,11.7,13.15.16,7.92-16.34,12.75-18.19,13.29-18.81,5.51-38.19-1.41-45.76-4.53" transform="translate(-15.03 -7.83)"/></svg>