<svg id="Layer_1" data-name="Layer 1" xmlns="http://www.w3.org/2000/svg" viewBox="0 0 367.24 372"><defs><style>.cls-1{fill:#fff;}</style></defs><title>searchLogo</title><path class="cls-1" d="M238,186a81,81,0,1,1-81,81,81.1,81.1,0,0,1,81-81m0-40A121,121,0,1,0,359,267,121,121,0,0,0,238,146Z" transform="translate(-117 -146)"/><rect class="cls-1" x="369.61" y="321.86" width="35.49" height="198.52" transform="translate(-301.32 251.24) rotate(-45)"/><path class="cls-1" d="M329.72,352.53,456,478.76l-10.95,11L318.77,363.48l11-11m0-28.28-39.24,39.23L445,518l39.24-39.24L329.72,324.25Z" transform="translate(-117 -146)"/></svg>